{"title":"CeeLo Green - All I Need Is Love (Ft. The Muppets) {M4A+MP4} (10","uid":7868511,"size":88349853,"categoryP":"video","categoryS":"music_videos","magnet":"?xt=urn:btih:97b861c1db3d65a9f120ce9a4b2c7cb5fe16ebbe&amp;dn=CeeLo+Green+-+All+I+Need+Is+Love+%28Ft.+The+Muppets%29+%7BM4A%2BMP4%7D+%2810&amp;tr=udp%3A%2F%2Ftracker.openbittorrent.com%3A80&amp;tr=udp%3A%2F%2Fopen.demonii.com%3A1337&amp;tr=udp%3A%2F%2Ftracker.coppersurfer.tk%3A6969&amp;tr=udp%3A%2F%2Fexodus.desync.com%3A6969","seeders":1,"leechers":0,"uploader":"Vitamin_X","files":-1,"time":1354127328,"description":"CeeLo Green - All I Need Is Love (Ft. The Muppets) {M4A+MP4} (1080p) x264 [VX] [P2PDL]\n &lt;a href=&quot;\nhttp://www.shotpix.com/images/69158352974788600436.jpg&quot; rel=&quot;nofollow&quot; target=&quot;_NEW&quot;&gt;\nhttp://www.shotpix.com/images/69158352974788600436.jpg&lt;/a&gt;\n\nRelease Title: CeeLo Green - All I Need Is Love (ft. The Muppets) (2012)\n\n\n                           1080p Full HD MP4 Video\n                                      +\n                            128 Kbps/VBR M4A Audio\n\nGeneral\nFormat                         : MPEG-4\nFormat profile                 : Base Media / Version 2\nCodec ID                       : mp42\nFile size                      : 80.1 MiB\nDuration                       : 6mn 53s\n\nVideo\nID                             : 1\nFormat                         : AVC\nFormat/Info                    : Advanced Video Codec\nWidth                          : 1 920 pixels\nHeight                         : 1 080 pixels\nDisplay aspect ratio           : 16:9\nFrame rate mode                : Variable\nFrame rate                     : 23.976 fps\nColor space                    : YUV\nChroma subsampling             : 4:2:0\nBit depth                      : 8 bits\nScan type                      : Progressive\nBits/(Pixel*Frame)             : 0.030\nStream size                    : 73.7 MiB (92%)\nWriting library                : x264 core 128\n\nAudio\nID                             : 2\nFormat                         : AAC\nFormat/Info                    : Advanced Audio Codec\nFormat profile                 : LC\nCodec ID                       : 40\nDuration                       : 6mn 53s\nBit rate mode                  : Variable\nBit rate                       : 126 Kbps\nMaximum bit rate               : 213 Kbps\nChannel(s)                     : 2 channels\nChannel positions              : Front: L R\nSampling rate                  : 48.0 KHz\nCompression mode               : Lossy\nStream size                    : 6.21 MiB (8%)\n\nSubtitles                      : No\n\nScreens:\n &lt;a href=&quot;\nhttp://www.shotpix.com/images/60895509265483500491.jpg&quot; rel=&quot;nofollow&quot; target=&quot;_NEW&quot;&gt;\nhttp://www.shotpix.com/images/60895509265483500491.jpg&lt;/a&gt; &lt;a href=&quot;\nhttp://www.shotpix.com/images/83441798871406120079.jpg&quot; rel=&quot;nofollow&quot; target=&quot;_NEW&quot;&gt;\nhttp://www.shotpix.com/images/83441798871406120079.jpg&lt;/a&gt;\n\nThumbs: &lt;a href=&quot;\nhttp://www.shotpix.com/images/99303518227005393105.jpg&quot; rel=&quot;nofollow&quot; target=&quot;_NEW&quot;&gt;\nhttp://www.shotpix.com/images/99303518227005393105.jpg&lt;/a&gt;\n\n------------------------------------------------------------------------\n\nNotes:\n\n* Recommended to use latest version VLC Media Player.\n* Install shark007 codecs in case of any kind of problem in playback (For non-VLC Media Player users).\n* Alternatively, install Core AVC codecs, the fastest decoder that there is coupled with Community Center Codec Pack and play on Windows Media Player Classic.\n\nGreets to: VYTO, a2zRG, Chew,staff members at ExtraTorrent, TPB,KAT, 1337x, PublicHD, Ahashare, TorrentMafia, BTScene, P2PDL, and all others\n\nEncoder Notes: Looking For Early Access To Anything You Can Provide DVDScr, R5, DVDRips, BluRay, Direct Audio, Early Music\nReleases, Seedboxes, Links, Dedicated Servers anything u can provide, Advance / Promo CDs/DVDs. If You Got anything to\noffer contact me at &quot;&lt;a class=&quot;__cf_email__&quot; href=&quot;/cdn-cgi/l/email-protection&quot; data-cfemail=&quot;22525045624a57514a0c414d4f&quot;&gt;[email&amp;#160;protected]&lt;/a&gt;&lt;script cf-hash='f9e31' type=&quot;text/javascript&quot;&gt;\n/* &lt;![CDATA[ */!function(){try{var t=&quot;currentScript&quot;in document?document.currentScript:function(){for(var t=document.getElementsByTagName(&quot;script&quot;),e=t.length;e--;)if(t[e].getAttribute(&quot;cf-hash&quot;))return t[e]}();if(t&amp;&amp;t.previousSibling){var e,r,n,i,c=t.previousSibling,a=c.getAttribute(&quot;data-cfemail&quot;);if(a){for(e=&quot;&quot;,r=parseInt(a.substr(0,2),16),n=2;a.length-n;n+=2)i=parseInt(a.substr(n,2),16)^r,e+=String.fromCharCode(i);e=document.createTextNode(e),c.parentNode.replaceChild(e,c)}}}catch(u){}}();/* ]]&gt; */&lt;/script&gt;&quot;\n\nFacebook Fan Page: www . facebook . com / p2pdl","torrent":{"xt":"urn:btih:97b861c1db3d65a9f120ce9a4b2c7cb5fe16ebbe","amp;dn":"CeeLo+Green+-+All+I+Need+Is+Love+%28Ft.+The+Muppets%29+%7BM4A%2BMP4%7D+%2810","amp;tr":["udp%3A%2F%2Ftracker.openbittorrent.com%3A80","udp%3A%2F%2Fopen.demonii.com%3A1337","udp%3A%2F%2Ftracker.coppersurfer.tk%3A6969","udp%3A%2F%2Fexodus.desync.com%3A6969"],"infoHash":"97b861c1db3d65a9f120ce9a4b2c7cb5fe16ebbe","infoHashBuffer":{"type":"Buffer","data":[151,184,97,193,219,61,101,169,241,32,206,154,75,44,124,181,254,22,235,190]},"announce":[],"urlList":[]}}